<svg xmlns:svg="http://www.w3.org/2000/svg" xmlns="http://www.w3.org/2000/svg" viewBox="0 0 1703 728.2" height="728.2" width="1703" xml:space="preserve" version="1.1"><g transform="matrix(1.3333333,0,0,-1.3333333,0,728.21333)"><g transform="scale(0.1)"><path d="m5834.7 1846.2v-248h-251.2v248zm-851.2-128c150.4 1.6 166.4 172.8 166.4 280 0 11.2 3.2 140.8-44.8 214.4-40 62.4-94.4 65.6-123.2 65.6-108.8 0-166.4-91.2-166.4-280 0-107.2 16-280 168-280zm374.4 1014.4V1729.4h124.8v-131.2h-313.6v121.6l-19.2-33.6c-36.8-51.2-84.8-78.4-105.6-86.4-43.2-17.6-88-19.2-102.4-19.2-89.6 0-168 35.2-228.8 102.4-43.2 48-108.8 152-108.8 315.2 0 43.2 3.2 169.6 81.6 281.6 86.4 121.6 201.6 136 257.6 136 28.8 0 89.6-1.6 152-49.6 27.2-22.4 44.8-43.2 51.2-52.8 8-11.2 11.2-16 22.4-36.8v324.8h-123.2v131.2zM4277.9 2020.6c-59.2-14.4-81.6-22.4-112-35.2-102.4-43.2-132.8-96-132.8-152 0-62.4 41.6-97.6 99.2-97.6 16 0 49.6 3.2 84.8 25.6 67.2 43.2 60.8 110.4 60.8 179.2zm-422.4 113.6 12.8 156.8c20.8 22.4 41.6 48 97.6 76.8 40 20.8 100.8 48 203.2 48 131.2 0 200-36.8 243.2-75.2 24-22.4 44.8-48 54.4-78.4 12.8-38.4 14.4-100.8 14.4-193.6v-339.2h116.8v-131.2H4290.7v108.8c-16-22.4-27.2-38.4-49.6-59.2-27.2-25.6-83.2-67.2-179.2-67.2-17.6 0-57.6 1.6-102.4 19.2-121.6 48-137.6 166.4-137.6 209.6 0 48 19.2 142.4 118.4 212.8 99.2 70.4 222.4 91.2 336 113.6v20.8c0 1.6 1.6 44.8-6.4 68.8-16 49.6-75.2 54.4-116.8 54.4-19.2 0-113.6 1.6-140.8-76.8-8-19.2-8-46.4-9.6-68.8zm-336-44.8c1.6 57.6 0 124.8-54.4 163.2-35.2 25.6-70.4 25.6-86.4 25.6-105.6 0-137.6-88-145.6-121.6-3.2-14.4-8-36.8-9.6-68.8zm-297.6-128c-3.2-121.6 22.4-243.2 172.8-243.2 22.4 0 104 3.2 139.2 76.8 6.4 14.4 11.2 28.8 16 59.2h192c0-24-1.6-28.8-3.2-41.6-8-36.8-30.4-80-52.8-108.8-41.6-51.2-132.8-123.2-294.4-123.2-30.4 0-97.6 1.6-171.2 35.2-86.4 40-225.6 145.6-225.6 382.4 0 28.8 1.6 86.4 22.4 155.2 72 233.6 268.8 262.4 355.2 262.4 38.4 0 140.8-4.8 232-72 60.8-46.4 144-150.4 144-336 0-27.2 0-28.8-3.2-46.4zm-828.8 331.2c11.2 16 14.4 22.4 27.2 36.8 70.4 80 155.2 86.4 195.2 86.4 75.2 0 126.4-25.6 152-41.6 118.4-73.6 105.6-196.8 105.6-315.2v-329.6h123.2v-131.2h-433.6v131.2h100.8v369.6c0 51.2-4.8 100.8-56 128-22.4 11.2-44.8 14.4-68.8 14.4-16 0-54.4-1.6-89.6-30.4-54.4-43.2-56-107.2-56-171.2v-310.4h100.8v-131.2h-433.6v131.2h124.8v872h-124.8v131.2h332.8zm-694.4-272c-59.2-14.4-81.6-22.4-112-35.2-102.4-43.2-132.8-96-132.8-152 0-62.4 41.6-97.6 99.2-97.6 16 0 49.6 3.2 84.8 25.6 67.2 43.2 60.8 110.4 60.8 179.2zm-422.4 113.6 12.8 156.8c20.8 22.4 41.6 48 97.6 76.8 40 20.8 100.8 48 203.2 48 131.2 0 200-36.8 243.2-75.2 24-22.4 44.8-48 54.4-78.4 12.8-38.4 14.4-100.8 14.4-193.6v-339.2h116.8v-131.2h-307.2v108.8c-16-22.4-27.2-38.4-49.6-59.2-27.2-25.6-83.2-67.2-179.2-67.2-17.6 0-57.6 1.6-102.4 19.2-121.6 48-137.6 166.4-137.6 209.6 0 48 19.2 142.4 118.4 212.8 99.2 70.4 222.4 91.2 336 113.6v20.8c0 1.6 1.6 44.8-6.4 68.8-16 49.6-75.2 54.4-116.8 54.4-19.2 0-113.6 1.6-140.8-76.8-8-19.2-8-46.4-9.6-68.8zm5751.9 1732.8c6.4 11.2 14.4 22.4 20.8 33.6 20.8 30.4 75.2 104 182.4 104 57.6 0 96-17.6 145.6-41.6v-220.8h-123.2c-3.2 14.4-8 27.2-12.8 41.6-6.4 16-20.8 65.6-78.4 65.6-57.6 0-96-56-108.8-105.6-9.6-40-11.2-116.8-12.8-217.6v-196.8h144v-131.2h-475.2v131.2h123.2v537.6h-123.2v131.2h318.4zm-587.2-177.6c1.6 57.6 0 124.8-54.4 163.2-35.2 25.6-70.4 25.6-86.4 25.6-105.6 0-137.6-88-145.6-121.6-3.2-14.4-8-36.8-9.6-68.8zm-297.6-128c-3.2-121.6 22.4-243.2 172.8-243.2 22.4 0 104 3.2 139.2 76.8 6.4 14.4 11.2 28.8 16 59.2h192c0-24-1.6-28.8-3.2-41.6-8-36.8-30.4-80-52.8-108.8-41.6-51.2-132.8-123.2-294.4-123.2-30.4 0-97.6 1.6-171.2 35.2-86.4 40-225.6 145.6-225.6 382.4 0 28.8 1.6 86.4 22.4 155.2 72 233.6 268.8 262.4 355.2 262.4 38.4 0 140.8-4.8 232-72 60.8-46.4 144-150.4 144-336 0-27.2 0-28.8-3.2-46.4zm-825.6 331.2c11.2 16 14.4 22.4 27.2 36.8 70.4 80 155.2 86.4 195.2 86.4 75.2 0 126.4-25.6 152-41.6 118.4-73.6 105.6-196.8 105.6-315.2v-329.6h123.2v-131.2h-433.6v131.2h100.8v369.6c0 51.2-4.8 100.8-56 128-22.4 11.2-44.8 14.4-68.8 14.4-16 0-54.4-1.6-89.6-30.4-54.4-43.2-56-107.2-56-171.2v-310.4h100.8v-131.2h-433.6v131.2h124.8v872h-124.8v131.2h332.8zm-392 105.6v-140.8h-188.8v-331.2c0-92.8-4.8-145.6 38.4-174.4 14.4-9.6 32-14.4 51.2-14.4 33.6 0 68.8 12.8 99.2 27.2l-1.6-160c-25.6-8-80-24-153.6-24-54.4 0-112 11.2-156.8 44.8-92.8 67.2-84.8 177.6-84.8 275.2v356.8h-115.2v140.8h115.2v236.8h208v-236.8zm-766.4-308.8c1.6 57.6 0 124.8-54.4 163.2-35.2 25.6-70.4 25.6-86.4 25.6-105.6 0-137.6-88-145.6-121.6-3.2-14.4-8-36.8-9.6-68.8zm-297.6-128c-3.2-121.6 22.4-243.2 172.8-243.2 22.4 0 104 3.2 139.2 76.8 6.4 14.4 11.2 28.8 16 59.2h192c0-24-1.6-28.8-3.2-41.6-8-36.8-30.4-80-52.8-108.8-41.6-51.2-132.8-123.2-294.4-123.2-30.4 0-97.6 1.6-171.2 35.2-86.4 40-225.6 145.6-225.6 382.4 0 28.8 1.6 86.4 22.4 155.2 72 233.6 268.8 262.4 355.2 262.4 38.4 0 140.8-4.8 232-72 60.8-46.4 144-150.4 144-336 0-27.2 0-28.8-3.2-46.4zm-766.4 102.4c33.6-57.6 99.2-60.8 118.4-60.8 12.8 0 35.2 0 62.4 12.8 64 30.4 70.4 92.8 70.4 115.2 0 78.4-54.4 126.4-132.8 126.4-11.2 0-32 0-59.2-11.2-49.6-20.8-76.8-62.4-76.8-115.2 0-24 4.8-46.4 17.6-67.2zm-65.6-608c40-54.4 126.4-62.4 185.6-62.4 14.4 0 89.6-1.6 145.6 25.6 57.6 25.6 68.8 65.6 68.8 92.8-1.6 16-3.2 43.2-36.8 68.8-56 43.2-176 41.6-177.6 41.6-12.8 0-89.6 0-144-25.6-52.8-25.6-62.4-70.4-60.8-92.8 0-9.6 4.8-28.8 19.2-48zm585.6 825.6h-163.2c28.8-24 83.2-73.6 81.6-169.6 0-48-11.2-92.8-38.4-131.2-40-57.6-108.8-88-248-108.8-41.6-6.4-72-9.6-88-17.6-6.4-3.2-27.2-16-27.2-38.4 0-32 35.2-40 84.8-46.4 17.6-1.6 33.6-3.2 51.2-4.8 115.2-14.4 180.8-25.6 228.8-48 75.2-35.2 112-97.6 112-180.8 0-40-6.4-137.6-99.2-206.4-54.4-40-145.6-75.2-294.4-75.2-17.6 0-166.4 0-260.8 51.2-27.2 14.4-54.4 38.4-73.6 64-16 19.2-44.8 64-43.2 128 0 140.8 134.4 174.4 168 184-16 6.4-86.4 27.2-86.4 96 0 19.2 6.4 40 17.6 56 30.4 38.4 83.2 49.6 126.4 60.8-12.8 4.8-43.2 19.2-73.6 41.6-60.8 46.4-97.6 120-97.6 196.8 0 97.6 56 182.4 140.8 225.6 78.4 40 144 40 304 40h278.4zm-1345.6-448c6.4-19.2 9.6-24 14.4-33.6 28.8-49.6 75.2-76.8 129.6-76.8 30.4 0 104 12.8 137.6 94.4 27.2 64 25.6 182.4 25.6 184 0 73.6-9.6 134.4-17.6 160-6.4 25.6-17.6 41.6-22.4 49.6-40 60.8-97.6 67.2-124.8 67.2-84.8 0-121.6-62.4-134.4-88-16-35.2-27.2-99.2-27.2-190.4 0-46.4 4.8-121.6 19.2-166.4zm-123.2 488c100.8 86.4 224 94.4 267.2 94.4 46.4 0 96-8 139.2-24 168-57.6 220.8-187.2 238.4-251.2 8-30.4 17.6-72 17.6-142.4 0-46.4 0-169.6-86.4-278.4-102.4-126.4-259.2-139.2-310.4-139.2-49.6 0-208 12.8-310.4 144-40 51.2-84.8 128-84.8 273.6 0 52.8 1.6 211.2 129.6 323.2zm-49.6 406.4v-334.4h-153.6v184h-217.6v-838.4h140.8v-140.8h-499.2v140.8h140.8v838.4h-222.4v-184h-152v334.4h963.2" fill="#6c2184"/><path d="m6960.8 2110.1v-225h269.4c158.1 0 184.9 35 184.9 113.3 0 78.8-25.7 111.7-184.9 111.7zm-326.3 288.1h655.5c305.9 0 454.6-129.7 454.6-396.4 0-179.5-80.4-306.7-221.4-357.5 41.5-69.6 306.6-513.9 306.6-513.9h-371c0 0-242.4 432.8-262.3 468.2h-235.7v-468.2h-326.3v1267.8m2095.5 0v-756.2c0-200.2-53.7-261.2-229.6-261.2-177.2 0-231.3 60.9-231.3 261.2v756.3h-324.6v-770.2c0-152.2 13.2-269.3 77-344.8 102.2-121.2 254.4-177.7 478.9-177.7 223.4 0 375 56.5 477.2 177.8 55.8 66.3 78.5 166.2 78.5 344.7v770.2h-326.1m1041.1-379.7c-38.3-100.6-96.4-253.4-120.3-316.1h245.1c-25 63.2-85.2 215.9-124.8 316.1m142.1 379.7h25l540.3-1267.8h-362c0 0-94.1 243.5-109.6 283.9h-466c-15.3-40.9-106.3-283.9-106.3-283.9h-348.9l536.7 1267.8h290.8m1147.9 3.4h577.4v-281.4h-577.4c-127 0-244.6-43.9-244.6-362.5 0-276 97.8-332.5 244.6-332.5h244.6v205.1l332.8 286.5v-782.9h-577.4c-148.5 0-272.4 8.3-402.2 112.9-130.6 104.2-196.9 272.2-196.9 499.5 0 441 196 655.4 599.1 655.4" fill="#02ade0"/></g></g></svg>
